<svg xmlns="http://www.w3.org/2000/svg" height="53.87" width="303.83"><path d="M116.86 0v2.53H102.6v39.3h-5.7V2.53h-5.71q-3.8 0-5.86 1.75-2.06 1.74-2.06 5.54H82V5.07q0-.95.22-1.87.22-.92.83-1.62.6-.69 1.64-1.14Q85.74 0 87.39 0h29.47zm11.98 41.83h-5.71V19.65q0-2.86-.79-4.6-.79-1.74-3.64-1.74h-1.27v-1.27h5.7q1.65 0 2.76.29 1.11.28 1.78 1.14.66.85.92 2.34.25 1.49.25 3.84v22.18m-.38-36.44q0 1.33-.79 2.09-.8.76-2.13.76-1.45 0-2.5-1.21-1.05-1.2-1.05-2.85 0-1.33.8-2.09.79-.76 2.12-.76 1.46 0 2.5 1.2 1.05 1.21 1.05 2.86zm15.97 9.19q1.2-1.21 3.3-2.19 2.09-.98 4.94-.98 2.41 0 4.4.88 2 .89 3.21 3.55 1.64-2.15 4.24-3.29 2.6-1.14 5.26-1.14 1.78 0 3.39.47 1.62.48 2.82 1.78 1.21 1.3 1.94 3.52.73 2.21.73 5.64v19.01h-5.71V22.82q0-4.76-1.33-6.66-1.33-1.9-3.74-1.9-.95 0-1.93.38t-1.87.98q-.89.6-1.65 1.33-.76.73-1.2 1.43.25.7.28 2.09.03 1.4.03 2.35v19.01h-5.7V22.82q0-4.76-1.33-6.66-1.33-1.9-3.74-1.9-1.9 0-3.52 1.01-1.62 1.02-2.82 2.35v24.21h-5.7V19.65q0-2.86-.8-4.6-.79-1.74-3.64-1.74h-1.27v-1.27h5.71q2.4 0 3.64.67 1.24.66 1.74 1.87h.32zm66.99 24.21q3.74.82 6.47.82 3.48 0 6.53-1.3 3.04-1.3 5.26-3.74 2.21-2.44 3.48-5.89 1.27-3.46 1.27-7.77 0-4.18-1.24-7.63-1.23-3.46-3.45-5.93-2.22-2.47-5.29-3.8-3.08-1.33-6.69-1.33-1.39 0-3.01.25-1.62.25-3.33.76v35.56M216.43 0q6.27 0 10.96 1.46 4.69 1.45 7.77 4.12 3.07 2.66 4.63 6.49 1.55 3.84 1.55 8.59 0 4.63-1.49 8.53-1.49 3.89-4.41 6.68-2.91 2.79-7.25 4.38-4.34 1.58-10.11 1.58h-12.55V7.6q0-2.85-.79-4.59-.8-1.74-3.65-1.74h-1.27V0h16.61zm33.21 19.65q0-2.86-.79-4.6-.79-1.74-3.65-1.74h-1.26v-1.27h5.7q1.65 0 2.76.29 1.11.28 1.77 1.14.67.85.92 2.34.26 1.49.26 3.84v20.6q0 3.54-.54 6.14-.54 2.6-1.87 4.25t-3.62 2.44q-2.28.79-5.7.79V52.6q3.11 0 4.56-3.29 1.46-3.3 1.46-9.06v-20.6m5.33-14.26q0 1.33-.8 2.09-.79.76-2.12.76-1.46 0-2.5-1.21-1.05-1.2-1.05-2.85 0-1.33.79-2.09.79-.76 2.13-.76 1.45 0 2.5 1.2 1.05 1.21 1.05 2.86zm29.47 21.55q0-2.73-.57-5.11-.57-2.37-1.62-4.12-1.05-1.74-2.5-2.75-1.46-1.02-3.24-1.02-1.77 0-3.23 1.02-1.46 1.01-2.5 2.75-1.05 1.75-1.62 4.12-.57 2.38-.57 5.11 0 2.72.57 5.1.57 2.37 1.62 4.12 1.04 1.74 2.5 2.75 1.46 1.02 3.23 1.02 1.78 0 3.24-1.02 1.45-1.01 2.5-2.75 1.05-1.75 1.62-4.12.57-2.38.57-5.1m-21.87 0q0-3.24.92-6.06.92-2.82 2.72-4.91 1.81-2.09 4.38-3.33 2.57-1.23 5.92-1.23 3.3 0 5.9 1.23 2.6 1.24 4.4 3.33 1.81 2.09 2.73 4.91.92 2.82.92 6.06 0 3.23-.92 6.05t-2.73 4.91q-1.8 2.09-4.4 3.33-2.6 1.23-5.9 1.23-3.35 0-5.92-1.23-2.57-1.24-4.38-3.33-1.8-2.09-2.72-4.91-.92-2.82-.92-6.05zm41.26 14.89h-5.7V7.6q0-2.85-.8-4.59-.79-1.74-3.64-1.74h-1.27V0h5.71q1.64 0 2.75.28 1.11.29 1.78 1.15.66.85.92 2.34.25 1.49.25 3.83v34.23z" xmlns:name="main_text" fill="#fff"/><g xmlns:name="symbol_mainfill" fill="tomato"><path d="M20.9 3.737c-3.483 1.927-6.003 4.67-7.782 8.375h7.708l.074-8.375zm.742-2.52h.37c8.079 0 15.046 4.299 18.974 10.747 1.185 1.927 2 4.076 2.52 6.374h16.601c.445 0 .741.222.741.518v23.347L67 51.17c0 .444-.37 1.482-.815 1.482h-50.62c-.446 0-.816-1.038-.816-1.482l4.076-6.3C8.227 43.389 0 34.198 0 23.155c.074-4.076 1.186-8.078 3.187-11.265C7.04 5.516 13.785 1.29 21.642 1.217zm37.131 38.91V20.71c0-.222-.296-.444-.667-.444H23.717c-.37 0-.667.222-.667.444v19.493c0 .296.296.444.667.444h34.315c.37.074.741-.148.741-.519zm-24.68-21.863h7.56c-.37-1.557-.964-2.965-1.63-4.3h-6.968c.37 1.41.816 2.743 1.038 4.3zm-1.779-6.152h6.596c-3.038-4.67-7.93-7.856-13.637-8.82 3.113 2.15 5.485 5.262 7.041 8.82zm-9.338 6.152h9.19c-.222-1.557-.593-2.965-1.186-4.3h-8.004v4.3zm0-6.152h7.263c-1.63-3.41-4.076-6.152-7.263-8.153v8.153zM20.9 13.965h-8.449a24.753 24.753 0 0 0-1.408 6.818c0 .371-.074.742-.074 1.112H20.9v-7.93zm-.148 28.164v-8.672H13.49c1.705 3.41 4.15 6.448 7.263 8.746v-.074zm0-10.525v-7.93H10.97c.148 2.816.667 5.41 1.705 7.856h8.078zm-2 11.414c-3.188-2.52-5.634-5.855-7.338-9.56H4.669c3.039 5.039 8.153 8.596 14.082 9.56zm-7.635-30.906c1.557-3.483 3.854-6.448 6.819-8.671-5.262 1.111-9.857 4.224-12.674 8.671h5.855zM3.78 31.604h6.967c-.964-2.446-1.483-5.188-1.557-7.856H2.001c0 2.742.593 5.41 1.779 7.856zm6.596-17.64h-6.3a20.252 20.252 0 0 0-2.075 7.857h7.115c0-.37 0-.815.074-1.26.074-2.297.52-4.52 1.186-6.596z"/><path d="M25.347 22.34h30.61v4.299h-30.61zm29.424 10.895l-1.779.89 1.334 2.593-1.186.593-1.334-2.52-1.704.815-.667-6.966zm-9.635.667l-.074-.074c.074 0 .074.074.074.074zm.37-5.188v9.635H25.422v-9.635h20.086zm-8.448 5.188c0-.074.074-.074 0 0 .074-.074 0-.074 0 0z"/></g></svg>