<svg xmlns="http://www.w3.org/2000/svg" version="1.1" xmlns:xlink="http://www.w3.org/1999/xlink" xmlns:svgjs="http://svgjs.com/svgjs" height="53.8699951171875" width="303.83000183105474"><defs id="SvgjsDefs1178"></defs><g id="SvgjsG1179" rel="mainfill" name="main_text" xmlns:name="main_text" transform="translate(80.66999995708471,-198.1699981689453)" fill="#ffffff"><path d="M36.19 198.17L36.19 200.70L21.93 200.70L21.93 240L16.23 240L16.23 200.70L10.52 200.70Q6.72 200.70 4.66 202.45Q2.60 204.19 2.60 207.99L1.33 207.99L1.33 203.24Q1.33 202.29 1.55 201.37Q1.77 200.45 2.38 199.75Q2.98 199.06 4.02 198.61Q5.07 198.17 6.72 198.17L36.19 198.17ZM48.17 240L42.46 240L42.46 217.82Q42.46 214.96 41.67 213.22Q40.88 211.48 38.03 211.48L36.76 211.48L36.76 210.21L42.46 210.21Q44.11 210.21 45.22 210.50Q46.33 210.78 47.00 211.64Q47.66 212.49 47.92 213.98Q48.17 215.47 48.17 217.82L48.17 240M47.79 203.56Q47.79 204.89 47.00 205.65Q46.20 206.41 44.87 206.41Q43.42 206.41 42.37 205.20Q41.32 204.00 41.32 202.35Q41.32 201.02 42.12 200.26Q42.91 199.50 44.24 199.50Q45.70 199.50 46.74 200.70Q47.79 201.91 47.79 203.56ZM63.76 212.75Q64.96 211.54 67.06 210.56Q69.15 209.58 72.00 209.58Q74.41 209.58 76.40 210.46Q78.40 211.35 79.61 214.01Q81.25 211.86 83.85 210.72Q86.45 209.58 89.11 209.58Q90.89 209.58 92.50 210.05Q94.12 210.53 95.32 211.83Q96.53 213.13 97.26 215.35Q97.99 217.56 97.99 220.99L97.99 240L92.28 240L92.28 220.99Q92.28 216.23 90.95 214.33Q89.62 212.43 87.21 212.43Q86.26 212.43 85.28 212.81Q84.30 213.19 83.41 213.79Q82.52 214.39 81.76 215.12Q81.00 215.85 80.56 216.55Q80.81 217.25 80.84 218.64Q80.87 220.04 80.87 220.99L80.87 240L75.17 240L75.17 220.99Q75.17 216.23 73.84 214.33Q72.51 212.43 70.10 212.43Q68.20 212.43 66.58 213.44Q64.96 214.46 63.76 215.79L63.76 240L58.06 240L58.06 217.82Q58.06 214.96 57.26 213.22Q56.47 211.48 53.62 211.48L52.35 211.48L52.35 210.21L58.06 210.21Q60.46 210.21 61.70 210.88Q62.94 211.54 63.44 212.75L63.76 212.75ZM130.75 236.96Q134.49 237.78 137.22 237.78Q140.70 237.78 143.75 236.48Q146.79 235.18 149.01 232.74Q151.22 230.30 152.49 226.85Q153.76 223.39 153.76 219.08Q153.76 214.90 152.52 211.45Q151.29 207.99 149.07 205.52Q146.85 203.05 143.78 201.72Q140.70 200.39 137.09 200.39Q135.70 200.39 134.08 200.64Q132.46 200.89 130.75 201.40L130.75 236.96M135.76 198.17Q142.03 198.17 146.72 199.63Q151.41 201.08 154.49 203.75Q157.56 206.41 159.12 210.24Q160.67 214.08 160.67 218.83Q160.67 223.46 159.18 227.36Q157.69 231.25 154.77 234.04Q151.86 236.83 147.52 238.42Q143.18 240 137.41 240L124.86 240L124.86 205.77Q124.86 202.92 124.07 201.18Q123.27 199.44 120.42 199.44L119.15 199.44L119.15 198.17L135.76 198.17ZM168.97 217.82Q168.97 214.96 168.18 213.22Q167.39 211.48 164.53 211.48L163.27 211.48L163.27 210.21L168.97 210.21Q170.62 210.21 171.73 210.50Q172.84 210.78 173.50 211.64Q174.17 212.49 174.42 213.98Q174.68 215.47 174.68 217.82L174.68 238.42Q174.68 241.96 174.14 244.56Q173.60 247.16 172.27 248.81Q170.94 250.46 168.65 251.25Q166.37 252.04 162.95 252.04L162.95 250.77Q166.06 250.77 167.51 247.48Q168.97 244.18 168.97 238.42L168.97 217.82M174.30 203.56Q174.30 204.89 173.50 205.65Q172.71 206.41 171.38 206.41Q169.92 206.41 168.88 205.20Q167.83 204.00 167.83 202.35Q167.83 201.02 168.62 200.26Q169.41 199.50 170.75 199.50Q172.20 199.50 173.25 200.70Q174.30 201.91 174.30 203.56ZM203.77 225.11Q203.77 222.38 203.20 220.00Q202.63 217.63 201.58 215.88Q200.53 214.14 199.08 213.13Q197.62 212.11 195.84 212.11Q194.07 212.11 192.61 213.13Q191.15 214.14 190.11 215.88Q189.06 217.63 188.49 220.00Q187.92 222.38 187.92 225.11Q187.92 227.83 188.49 230.21Q189.06 232.58 190.11 234.33Q191.15 236.07 192.61 237.08Q194.07 238.10 195.84 238.10Q197.62 238.10 199.08 237.08Q200.53 236.07 201.58 234.33Q202.63 232.58 203.20 230.21Q203.77 227.83 203.77 225.11M181.90 225.11Q181.90 221.87 182.82 219.05Q183.74 216.23 185.54 214.14Q187.35 212.05 189.92 210.81Q192.49 209.58 195.84 209.58Q199.14 209.58 201.74 210.81Q204.34 212.05 206.14 214.14Q207.95 216.23 208.87 219.05Q209.79 221.87 209.79 225.11Q209.79 228.34 208.87 231.16Q207.95 233.98 206.14 236.07Q204.34 238.16 201.74 239.40Q199.14 240.63 195.84 240.63Q192.49 240.63 189.92 239.40Q187.35 238.16 185.54 236.07Q183.74 233.98 182.82 231.16Q181.90 228.34 181.90 225.11ZM223.16 240L217.46 240L217.46 205.77Q217.46 202.92 216.66 201.18Q215.87 199.44 213.02 199.44L211.75 199.44L211.75 198.17L217.46 198.17Q219.10 198.17 220.21 198.45Q221.32 198.74 221.99 199.60Q222.65 200.45 222.91 201.94Q223.16 203.43 223.16 205.77L223.16 240Z" fill="#ffffff" style="fill: rgb(255, 255, 255);"></path></g><g id="SvgjsG1180" rel="mainfill" name="symbol" xmlns:name="symbol_mainfill" transform="translate(-3.483407292316335,-9.084907753371677) scale(0.741150367417763)" fill="#ff6347"><path d="M32.9,17.3c-4.7,2.6-8.1,6.3-10.5,11.3h10.4L32.9,17.3z M33.9,13.9c0.2,0,0.3,0,0.5,0c10.9,0,20.3,5.8,25.6,14.5  c1.6,2.6,2.7,5.5,3.4,8.6h22.4c0.6,0,1,0.3,1,0.7V69c0,0.1,0,0.1,0,0.2l0,0l8.3,12.1c0,0.6-0.5,2-1.1,2H25.7c-0.6,0-1.1-1.4-1.1-2  l5.5-8.5c-14.3-2-25.4-14.4-25.4-29.3C4.8,38,6.3,32.6,9,28.3C14.2,19.7,23.3,14,33.9,13.9z M84,66.4V40.2c0-0.3-0.4-0.6-0.9-0.6  H63.8h-2.5H50.9h-2.5H36.7c-0.5,0-0.9,0.3-0.9,0.6v1.6v2.5l0,0v10.6l0,0v2.5v9.1c0,0.4,0.4,0.6,0.9,0.6h1.1h3.5h6.5h3.9h0.7H70h3.2  H83C83.5,67.2,84,66.9,84,66.4z M50.7,36.9h10.2c-0.5-2.1-1.3-4-2.2-5.8h-9.4C49.8,33,50.4,34.8,50.7,36.9z M48.3,28.6h8.9  c-4.1-6.3-10.7-10.6-18.4-11.9C43,19.6,46.2,23.8,48.3,28.6z M35.7,36.9h12.4c-0.3-2.1-0.8-4-1.6-5.8H35.7V36.9z M35.7,28.6h9.8  c-2.2-4.6-5.5-8.3-9.8-11V28.6z M32.9,31.1H21.5c-1,2.8-1.7,5.9-1.9,9.2c0,0.5-0.1,1-0.1,1.5h13.4V31.1z M32.7,69.1V69V57.4h-9.8  c2.3,4.6,5.6,8.7,9.8,11.8C32.7,69.1,32.7,69.1,32.7,69.1z M32.7,54.9V44.2H19.5c0.2,3.8,0.9,7.3,2.3,10.6H32.7z M30,70.3  c-4.3-3.4-7.6-7.9-9.9-12.9H11C15.1,64.2,22,69,30,70.3z M19.7,28.6c2.1-4.7,5.2-8.7,9.2-11.7c-7.1,1.5-13.3,5.7-17.1,11.7H19.7z   M9.8,54.9h9.4c-1.3-3.3-2-7-2.1-10.6H7.4C7.4,48,8.2,51.6,9.8,54.9z M18.7,31.1h-8.5C8.6,34.3,7.6,38,7.4,41.7H17  c0-0.5,0-1.1,0.1-1.7C17.2,36.9,17.8,33.9,18.7,31.1z" fill="#ff6347" style="fill: rgb(255, 99, 71);"></path><rect x="38.9" y="42.4" width="41.3" height="5.8"></rect><polygon points="78.6,57.1 76.2,58.3 78,61.8 76.4,62.6 74.6,59.2 72.3,60.3 71.4,50.9 "></polygon><path d="M65.6,58l-0.1-0.1l0,0C65.6,57.9,65.6,58,65.6,58z M66.1,51V64H39V51H66.1z M54.7,58C54.7,57.9,54.8,57.9,54.7,58L54.7,58  C54.8,57.9,54.7,57.9,54.7,58z" fill="#ff6347" style="fill: rgb(255, 99, 71);"></path></g></svg>